<?xml version="1.0" encoding="iso-8859-1"?>
<!-- Generator: Adobe Illustrator 19.0.0, SVG Export Plug-In . SVG Version: 6.00 Build 0)  -->
<svg version="1.1" id="Capa_1" xmlns="http://www.w3.org/2000/svg" xmlns:xlink="http://www.w3.org/1999/xlink" x="0px" y="0px"
	 viewBox="0 0 511.999 511.999" style="enable-background:new 0 0 511.999 511.999;" xml:space="preserve" fill="#FFF">
<g>
	<g>
		<path d="M100.525,356.736c-4.143,0-7.5,3.357-7.5,7.5v0.988c0,4.143,3.358,7.5,7.5,7.5c4.143,0,7.5-3.357,7.5-7.5v-0.988
			C108.025,360.093,104.668,356.736,100.525,356.736z"/>
	</g>
</g>
<g>
	<g>
		<path d="M100.525,416.685c-4.143,0-7.5,3.357-7.5,7.5v0.988c0,4.143,3.357,7.5,7.5,7.5s7.5-3.357,7.5-7.5v-0.988
			C108.025,420.042,104.668,416.685,100.525,416.685z"/>
	</g>
</g>
<g>
	<g>
		<path d="M73.308,399.699c-4.143,0-7.5,3.357-7.5,7.5v0.988c0,4.143,3.357,7.5,7.5,7.5s7.5-3.357,7.5-7.5v-0.988
			C80.808,403.056,77.451,399.699,73.308,399.699z"/>
	</g>
</g>
<g>
	<g>
		<path d="M129.987,400.687h-12.635c-4.143,0-7.5,3.357-7.5,7.5s3.357,7.5,7.5,7.5h12.635c4.143,0,7.5-3.357,7.5-7.5
			S134.13,400.687,129.987,400.687z"/>
	</g>
</g>
<g>
	<g>
		<path d="M157.742,365.934h-12.635c-4.143,0-7.5,3.357-7.5,7.5s3.358,7.5,7.5,7.5h12.635c4.143,0,7.5-3.357,7.5-7.5
			S161.885,365.934,157.742,365.934z"/>
	</g>
</g>
<g>
	<g>
		<path d="M509.803,421.565l-45.012-45.012c-1.407-1.406-3.314-2.196-5.304-2.196h-24.398c-4.143,0-7.5,3.357-7.5,7.5
			s3.357,7.5,7.5,7.5h21.292l40.618,40.618v61.991H168.82v-62.874l39.735-39.735H400.91c4.143,0,7.5-3.357,7.5-7.5
			s-3.357-7.5-7.5-7.5h-16.413l11.216-53.736c0.847-4.055-1.755-8.027-5.81-8.874c-4.055-0.844-8.028,1.755-8.874,5.81
			l-11.856,56.801h-44.114c12.113-59.292,23.26-113.407,35.089-167.638l46.135-10.156l-18.121,86.816
			c-0.847,4.055,1.755,8.027,5.81,8.874c4.052,0.84,8.028-1.755,8.874-5.81l20.489-98.165c0.347-1.676,0.096-3.494-0.697-5.011
			l-42.391-80.979c-1.04-1.987-2.916-3.405-5.112-3.863c-2.196-0.461-4.482,0.09-6.23,1.496l-71.246,57.259
			c-1.343,1.081-2.277,2.632-2.644,4.313l-12.052,57.743L259.6,85.679c-0.301-1.686-1.201-3.279-2.501-4.396l-52.096-44.738
			c-1.702-1.462-3.967-2.085-6.18-1.698c-2.209,0.387-4.13,1.742-5.234,3.694l-33.813,59.768c-0.842,1.488-1.158,3.301-0.86,4.985
			l18.547,106.014l-29.61-61.367c-0.739-1.539-2.057-2.834-3.606-3.549L81.92,115.565c-2.036-0.941-4.389-0.921-6.407,0.053
			c-2.021,0.975-3.499,2.803-4.029,4.983l-16.222,66.726c-0.404,1.668-0.205,3.482,0.533,5.03l55.034,114.06H75.282
			c-1.989,0-3.896,0.79-5.304,2.196L25.85,352.742c-1.406,1.407-2.196,3.314-2.196,5.304v14.865c0,4.143,3.357,7.5,7.5,7.5
			s7.5-3.357,7.5-7.5v-11.759l39.735-39.735h183.249l-11.05,52.94H205.45c-1.989,0-3.896,0.79-5.304,2.196l-44.129,44.129
			c-1.406,1.407-2.196,3.314-2.196,5.304v65.98h-14.654v-6.45c0-17.178-13.976-31.152-31.153-31.152S76.86,468.338,76.86,485.516
			v6.45H62.306v-6.45c0-14.592-10.086-26.868-23.652-30.234v-48.194c0-4.143-3.357-7.5-7.5-7.5s-7.5,3.357-7.5,7.5v48.194
			C10.087,458.649,0,470.924,0,485.516v13.95c0,4.143,3.357,7.5,7.5,7.5h496.999c4.143,0,7.5-3.357,7.5-7.5v-72.598
			C511.999,424.879,511.209,422.972,509.803,421.565z M371.192,117.329l33.609,64.202l-49.275,10.847l-40.819-29.653
			L371.192,117.329z M307.332,175.909l38.143,27.708c-12.042,55.2-23.37,110.252-35.723,170.74h-43.841L307.332,175.909z
			 M202.151,53.868l37.73,32.402l-28.663,19.427l-33.556-8.542L202.151,53.868z M83.904,133.009l45.139,20.878l-22.275,26.51
			l-34.613,0.938L83.904,133.009z M127.483,306.417l-53.14-110.136l31.341-0.849c10.32,21.497,20.906,43.364,31.167,64.561
			c7.374,15.231,14.959,30.899,22.443,46.424H127.483z M175.944,306.417c-8.498-17.653-17.182-35.59-25.591-52.96
			c-10.259-21.192-20.841-43.053-31.154-64.535l20.183-24.021l47.122,97.66c0.122,0.252,0.258,0.492,0.403,0.725l7.545,43.131
			H175.944z M209.679,306.417l-33.99-194.286l30.395,7.737l32.636,186.549H209.679z M253.948,306.417L220.86,117.282l25.962-17.596
			l27.859,159.241l-9.913,47.49H253.948z M47.305,491.966H31.153H15v-6.45c0-8.906,7.246-16.152,16.153-16.152
			c8.906,0,16.152,7.246,16.152,16.152V491.966z M124.165,491.966H91.86v-6.45c0-8.906,7.246-16.152,16.152-16.152
			c8.907,0,16.153,7.246,16.153,16.152V491.966z"/>
	</g>
</g>
<g>
	<g>
		<path d="M395.099,423.359c-4.143,0-7.5,3.357-7.5,7.5v0.988c0,4.143,3.357,7.5,7.5,7.5s7.5-3.357,7.5-7.5v-0.988
			C402.599,426.716,399.241,423.359,395.099,423.359z"/>
	</g>
</g>
<g>
	<g>
		<path d="M464.586,444.763c-4.143,0-7.5,3.357-7.5,7.5v0.987c0,4.143,3.357,7.5,7.5,7.5s7.5-3.358,7.5-7.5v-0.987
			C472.086,448.12,468.729,444.763,464.586,444.763z"/>
	</g>
</g>
<g>
	<g>
		<path d="M203.476,459.216c-4.143,0-7.5,3.358-7.5,7.5v0.988c0,4.143,3.357,7.5,7.5,7.5s7.5-3.357,7.5-7.5v-0.988
			C210.976,462.573,207.619,459.216,203.476,459.216z"/>
	</g>
</g>
<g>
	<g>
		<path d="M260.156,460.205h-12.635c-4.143,0-7.5,3.357-7.5,7.5s3.357,7.5,7.5,7.5h12.635c4.143,0,7.5-3.357,7.5-7.5
			S264.299,460.205,260.156,460.205z"/>
	</g>
</g>
<g>
	<g>
		<path d="M289.314,437.216H276.68c-4.143,0-7.5,3.357-7.5,7.5s3.357,7.5,7.5,7.5h12.634c4.143,0,7.5-3.357,7.5-7.5
			S293.457,437.216,289.314,437.216z"/>
	</g>
</g>
<g>
	<g>
		<path d="M374.041,406.546h-12.634c-4.143,0-7.5,3.357-7.5,7.5s3.357,7.5,7.5,7.5h12.634c4.143,0,7.5-3.357,7.5-7.5
			S378.184,406.546,374.041,406.546z"/>
	</g>
</g>
<g>
	<g>
		<path d="M457.656,193.84c-4.143,0-7.5,3.357-7.5,7.5v3.133c0,4.143,3.358,7.5,7.5,7.5c4.143,0,7.5-3.357,7.5-7.5v-3.133
			C465.156,197.197,461.799,193.84,457.656,193.84z"/>
	</g>
</g>
<g>
	<g>
		<path d="M457.656,225.395c-4.143,0-7.5,3.357-7.5,7.5v3.133c0,4.143,3.357,7.5,7.5,7.5s7.5-3.357,7.5-7.5v-3.133
			C465.156,228.752,461.799,225.395,457.656,225.395z"/>
	</g>
</g>
<g>
	<g>
		<path d="M475,211.184h-3.133c-4.143,0-7.5,3.357-7.5,7.5s3.358,7.5,7.5,7.5H475c4.143,0,7.5-3.357,7.5-7.5
			S479.143,211.184,475,211.184z"/>
	</g>
</g>
<g>
	<g>
		<path d="M443.446,211.184h-3.133c-4.143,0-7.5,3.357-7.5,7.5s3.357,7.5,7.5,7.5h3.133c4.143,0,7.5-3.357,7.5-7.5
			S447.589,211.184,443.446,211.184z"/>
	</g>
</g>
<g>
	<g>
		<path d="M345.333,45.556c-4.143,0-7.5,3.357-7.5,7.5v3.132c0,4.143,3.357,7.5,7.5,7.5s7.5-3.357,7.5-7.5v-3.132
			C352.833,48.913,349.476,45.556,345.333,45.556z"/>
	</g>
</g>
<g>
	<g>
		<path d="M345.333,77.111c-4.143,0-7.5,3.357-7.5,7.5v3.133c0,4.143,3.357,7.5,7.5,7.5s7.5-3.357,7.5-7.5v-3.133
			C352.833,80.468,349.476,77.111,345.333,77.111z"/>
	</g>
</g>
<g>
	<g>
		<path d="M362.678,62.9h-3.133c-4.143,0-7.5,3.357-7.5,7.5c0,4.143,3.357,7.5,7.5,7.5h3.133c4.143,0,7.5-3.357,7.5-7.5
			C370.178,66.257,366.821,62.9,362.678,62.9z"/>
	</g>
</g>
<g>
	<g>
		<path d="M331.122,62.9h-3.133c-4.143,0-7.5,3.357-7.5,7.5c0,4.143,3.358,7.5,7.5,7.5h3.133c4.143,0,7.5-3.357,7.5-7.5
			C338.622,66.257,335.265,62.9,331.122,62.9z"/>
	</g>
</g>
<g>
	<g>
		<path d="M147.638,5.033c-4.143,0-7.5,3.357-7.5,7.5v3.133c0,4.142,3.357,7.5,7.5,7.5s7.5-3.357,7.5-7.5v-3.133
			C155.138,8.39,151.781,5.033,147.638,5.033z"/>
	</g>
</g>
<g>
	<g>
		<path d="M147.638,36.588c-4.143,0-7.5,3.357-7.5,7.5v3.132c0,4.143,3.357,7.5,7.5,7.5s7.5-3.357,7.5-7.5v-3.132
			C155.138,39.945,151.781,36.588,147.638,36.588z"/>
	</g>
</g>
<g>
	<g>
		<path d="M164.982,22.376h-3.133c-4.143,0-7.5,3.357-7.5,7.5s3.357,7.5,7.5,7.5h3.133c4.143,0,7.5-3.357,7.5-7.5
			S169.125,22.376,164.982,22.376z"/>
	</g>
</g>
<g>
	<g>
		<path d="M133.427,22.376h-3.133c-4.143,0-7.5,3.357-7.5,7.5s3.357,7.5,7.5,7.5h3.133c4.143,0,7.5-3.357,7.5-7.5
			S137.57,22.376,133.427,22.376z"/>
	</g>
</g>
<g>
	<g>
		<path d="M41.455,215.054c-4.143,0-7.5,3.357-7.5,7.5v3.133c0,4.143,3.358,7.5,7.5,7.5c4.143,0,7.5-3.357,7.5-7.5v-3.133
			C48.955,218.411,45.598,215.054,41.455,215.054z"/>
	</g>
</g>
<g>
	<g>
		<path d="M41.455,246.609c-4.143,0-7.5,3.357-7.5,7.5v3.133c0,4.143,3.357,7.5,7.5,7.5s7.5-3.357,7.5-7.5v-3.133
			C48.955,249.966,45.598,246.609,41.455,246.609z"/>
	</g>
</g>
<g>
	<g>
		<path d="M58.8,232.398h-3.133c-4.143,0-7.5,3.357-7.5,7.5s3.357,7.5,7.5,7.5H58.8c4.143,0,7.5-3.357,7.5-7.5
			S62.943,232.398,58.8,232.398z"/>
	</g>
</g>
<g>
	<g>
		<path d="M27.244,232.398h-3.133c-4.143,0-7.5,3.357-7.5,7.5s3.358,7.5,7.5,7.5h3.133c4.143,0,7.5-3.357,7.5-7.5
			S31.387,232.398,27.244,232.398z"/>
	</g>
</g>
<g>
	<g>
		<path d="M116.167,57.97c-4.143,0-7.5,3.357-7.5,7.5v3.133c0,4.143,3.357,7.5,7.5,7.5s7.5-3.357,7.5-7.5V65.47
			C123.667,61.327,120.31,57.97,116.167,57.97z"/>
	</g>
</g>
<g>
	<g>
		<path d="M116.167,89.525c-4.143,0-7.5,3.357-7.5,7.5v3.133c0,4.143,3.357,7.5,7.5,7.5s7.5-3.357,7.5-7.5v-3.133
			C123.667,92.882,120.31,89.525,116.167,89.525z"/>
	</g>
</g>
<g>
	<g>
		<path d="M133.511,75.314h-3.133c-4.143,0-7.5,3.357-7.5,7.5c0,4.143,3.357,7.5,7.5,7.5h3.133c4.143,0,7.5-3.357,7.5-7.5
			C141.011,78.671,137.654,75.314,133.511,75.314z"/>
	</g>
</g>
<g>
	<g>
		<path d="M101.956,75.314h-3.133c-4.143,0-7.5,3.357-7.5,7.5c0,4.143,3.358,7.5,7.5,7.5h3.133c4.143,0,7.5-3.357,7.5-7.5
			C109.456,78.671,106.099,75.314,101.956,75.314z"/>
	</g>
</g>
<g>
</g>
<g>
</g>
<g>
</g>
<g>
</g>
<g>
</g>
<g>
</g>
<g>
</g>
<g>
</g>
<g>
</g>
<g>
</g>
<g>
</g>
<g>
</g>
<g>
</g>
<g>
</g>
<g>
</g>
</svg>
